<svg width="540" height="365" viewBox="0 0 540 365" fill="none" xmlns="http://www.w3.org/2000/svg">
<g clip-path="url(#clip0_2_166)">
<g filter="url(#filter0_d_2_166)">
<rect width="540" height="365" rx="10" fill="#F78434"/>
</g>
<g clip-path="url(#clip1_2_166)">
<rect x="184" y="268" width="172" height="58" rx="29" fill="white"/>
<path d="M229.24 292.576C230.659 292.576 231.827 292.923 232.744 293.616C233.661 294.309 234.232 295.248 234.456 296.432H231.56C231.368 296.027 231.075 295.707 230.68 295.472C230.285 295.227 229.811 295.104 229.256 295.104C228.392 295.104 227.699 295.397 227.176 295.984C226.653 296.56 226.392 297.344 226.392 298.336C226.392 299.413 226.664 300.24 227.208 300.816C227.763 301.392 228.547 301.68 229.56 301.68C230.211 301.68 230.781 301.504 231.272 301.152C231.763 300.789 232.109 300.277 232.312 299.616H228.856V297.648H234.6V300.352C234.387 301.013 234.045 301.627 233.576 302.192C233.107 302.757 232.504 303.216 231.768 303.568C231.043 303.92 230.211 304.096 229.272 304.096C228.131 304.096 227.133 303.856 226.28 303.376C225.427 302.885 224.765 302.203 224.296 301.328C223.837 300.453 223.608 299.456 223.608 298.336C223.608 297.216 223.837 296.219 224.296 295.344C224.765 294.469 225.421 293.792 226.264 293.312C227.117 292.821 228.109 292.576 229.24 292.576ZM244.612 299.296C244.612 299.52 244.585 299.765 244.532 300.032H238.34C238.372 300.704 238.542 301.189 238.852 301.488C239.161 301.776 239.556 301.92 240.036 301.92C240.441 301.92 240.777 301.819 241.044 301.616C241.31 301.413 241.486 301.152 241.572 300.832H244.468C244.35 301.461 244.094 302.027 243.7 302.528C243.305 303.019 242.804 303.408 242.196 303.696C241.588 303.973 240.91 304.112 240.164 304.112C239.289 304.112 238.51 303.931 237.828 303.568C237.156 303.195 236.628 302.661 236.243 301.968C235.86 301.275 235.668 300.464 235.668 299.536C235.668 298.597 235.854 297.787 236.228 297.104C236.612 296.411 237.145 295.883 237.828 295.52C238.51 295.147 239.289 294.96 240.164 294.96C241.049 294.96 241.828 295.141 242.5 295.504C243.172 295.867 243.689 296.379 244.052 297.04C244.425 297.691 244.612 298.443 244.612 299.296ZM241.844 298.88C241.854 298.293 241.694 297.856 241.364 297.568C241.044 297.269 240.644 297.12 240.164 297.12C239.662 297.12 239.246 297.269 238.916 297.568C238.585 297.867 238.398 298.304 238.356 298.88H241.844ZM251.094 301.648V304H249.862C248.816 304 248 303.744 247.414 303.232C246.838 302.709 246.55 301.851 246.55 300.656V297.376H245.35V295.072H246.55V292.88H249.286V295.072H251.078V297.376H249.286V300.704C249.286 301.056 249.355 301.301 249.494 301.44C249.643 301.579 249.888 301.648 250.23 301.648H251.094ZM263.963 300.816C263.963 301.413 263.808 301.963 263.499 302.464C263.2 302.965 262.752 303.365 262.155 303.664C261.568 303.963 260.853 304.112 260.011 304.112C258.741 304.112 257.696 303.803 256.875 303.184C256.053 302.565 255.605 301.701 255.531 300.592H258.443C258.485 301.019 258.635 301.355 258.891 301.6C259.157 301.845 259.493 301.968 259.899 301.968C260.251 301.968 260.528 301.872 260.731 301.68C260.933 301.488 261.035 301.232 261.035 300.912C261.035 300.624 260.939 300.384 260.747 300.192C260.565 300 260.336 299.845 260.059 299.728C259.781 299.6 259.397 299.451 258.907 299.28C258.192 299.035 257.605 298.8 257.147 298.576C256.699 298.341 256.309 298 255.979 297.552C255.659 297.093 255.499 296.501 255.499 295.776C255.499 295.104 255.669 294.523 256.011 294.032C256.352 293.541 256.821 293.168 257.419 292.912C258.027 292.645 258.72 292.512 259.499 292.512C260.757 292.512 261.755 292.811 262.491 293.408C263.237 294.005 263.659 294.827 263.755 295.872H260.795C260.741 295.499 260.603 295.205 260.379 294.992C260.165 294.768 259.872 294.656 259.499 294.656C259.179 294.656 258.917 294.741 258.715 294.912C258.523 295.083 258.427 295.333 258.427 295.664C258.427 295.931 258.512 296.16 258.683 296.352C258.864 296.533 259.088 296.683 259.355 296.8C259.621 296.917 260.005 297.067 260.507 297.248C261.232 297.493 261.824 297.739 262.283 297.984C262.741 298.219 263.136 298.565 263.467 299.024C263.797 299.483 263.963 300.08 263.963 300.816ZM270.531 301.648V304H269.299C268.254 304 267.438 303.744 266.851 303.232C266.275 302.709 265.987 301.851 265.987 300.656V297.376H264.787V295.072H265.987V292.88H268.723V295.072H270.515V297.376H268.723V300.704C268.723 301.056 268.793 301.301 268.931 301.44C269.081 301.579 269.326 301.648 269.667 301.648H270.531ZM275.461 294.96C276.144 294.96 276.73 295.115 277.221 295.424C277.712 295.733 278.074 296.155 278.309 296.688V295.072H281.029V304H278.309V302.384C278.074 302.917 277.712 303.339 277.221 303.648C276.73 303.957 276.144 304.112 275.461 304.112C274.725 304.112 274.064 303.931 273.477 303.568C272.901 303.195 272.442 302.661 272.101 301.968C271.77 301.275 271.605 300.464 271.605 299.536C271.605 298.597 271.77 297.787 272.101 297.104C272.442 296.411 272.901 295.883 273.477 295.52C274.064 295.147 274.725 294.96 275.461 294.96ZM276.341 297.36C275.754 297.36 275.28 297.552 274.917 297.936C274.565 298.32 274.389 298.853 274.389 299.536C274.389 300.219 274.565 300.752 274.917 301.136C275.28 301.52 275.754 301.712 276.341 301.712C276.917 301.712 277.386 301.515 277.749 301.12C278.122 300.725 278.309 300.197 278.309 299.536C278.309 298.864 278.122 298.336 277.749 297.952C277.386 297.557 276.917 297.36 276.341 297.36ZM285.649 296.752C285.99 296.208 286.427 295.776 286.961 295.456C287.505 295.136 288.091 294.976 288.721 294.976V297.904H287.937C287.211 297.904 286.646 298.059 286.241 298.368C285.846 298.677 285.649 299.2 285.649 299.936V304H282.913V295.072H285.649V296.752ZM294.922 301.648V304H293.69C292.645 304 291.829 303.744 291.242 303.232C290.666 302.709 290.378 301.851 290.378 300.656V297.376H289.178V295.072H290.378V292.88H293.114V295.072H294.906V297.376H293.114V300.704C293.114 301.056 293.183 301.301 293.322 301.44C293.471 301.579 293.717 301.648 294.058 301.648H294.922ZM304.94 299.296C304.94 299.52 304.913 299.765 304.86 300.032H298.668C298.7 300.704 298.87 301.189 299.18 301.488C299.489 301.776 299.884 301.92 300.364 301.92C300.769 301.92 301.105 301.819 301.372 301.616C301.638 301.413 301.814 301.152 301.9 300.832H304.796C304.678 301.461 304.422 302.027 304.028 302.528C303.633 303.019 303.132 303.408 302.524 303.696C301.916 303.973 301.238 304.112 300.492 304.112C299.617 304.112 298.838 303.931 298.156 303.568C297.484 303.195 296.956 302.661 296.572 301.968C296.188 301.275 295.996 300.464 295.996 299.536C295.996 298.597 296.182 297.787 296.556 297.104C296.94 296.411 297.473 295.883 298.156 295.52C298.838 295.147 299.617 294.96 300.492 294.96C301.377 294.96 302.156 295.141 302.828 295.504C303.5 295.867 304.017 296.379 304.38 297.04C304.753 297.691 304.94 298.443 304.94 299.296ZM302.172 298.88C302.182 298.293 302.022 297.856 301.692 297.568C301.372 297.269 300.972 297.12 300.492 297.12C299.99 297.12 299.574 297.269 299.244 297.568C298.913 297.867 298.726 298.304 298.684 298.88H302.172ZM309.758 294.96C310.441 294.96 311.027 295.115 311.518 295.424C312.009 295.733 312.366 296.155 312.59 296.688V292.16H315.326V304H312.59V302.384C312.366 302.917 312.009 303.339 311.518 303.648C311.027 303.957 310.441 304.112 309.758 304.112C309.022 304.112 308.361 303.931 307.774 303.568C307.198 303.195 306.739 302.661 306.398 301.968C306.067 301.275 305.902 300.464 305.902 299.536C305.902 298.597 306.067 297.787 306.398 297.104C306.739 296.411 307.198 295.883 307.774 295.52C308.361 295.147 309.022 294.96 309.758 294.96ZM310.638 297.36C310.051 297.36 309.577 297.552 309.214 297.936C308.862 298.32 308.686 298.853 308.686 299.536C308.686 300.219 308.862 300.752 309.214 301.136C309.577 301.52 310.051 301.712 310.638 301.712C311.214 301.712 311.683 301.515 312.046 301.12C312.419 300.725 312.606 300.197 312.606 299.536C312.606 298.864 312.419 298.336 312.046 297.952C311.683 297.557 311.214 297.36 310.638 297.36Z" fill="#F78434"/>
</g>
<path d="M113.869 196.72V197.904H110.685V208H109.229V197.904H106.045V196.72H113.869ZM120.45 199.104C121.293 199.104 122.045 199.285 122.706 199.648C123.378 200.011 123.901 200.533 124.274 201.216C124.658 201.899 124.85 202.699 124.85 203.616C124.85 204.533 124.658 205.333 124.274 206.016C123.901 206.688 123.378 207.205 122.706 207.568C122.045 207.931 121.293 208.112 120.45 208.112C119.608 208.112 118.85 207.931 118.178 207.568C117.517 207.205 116.994 206.688 116.61 206.016C116.226 205.333 116.034 204.533 116.034 203.616C116.034 202.699 116.226 201.899 116.61 201.216C116.994 200.533 117.517 200.011 118.178 199.648C118.85 199.285 119.608 199.104 120.45 199.104ZM120.45 200.384C119.928 200.384 119.442 200.501 118.994 200.736C118.557 200.971 118.2 201.333 117.922 201.824C117.656 202.304 117.522 202.901 117.522 203.616C117.522 204.32 117.656 204.917 117.922 205.408C118.2 205.888 118.557 206.245 118.994 206.48C119.442 206.715 119.928 206.832 120.45 206.832C120.973 206.832 121.453 206.715 121.89 206.48C122.338 206.245 122.696 205.888 122.962 205.408C123.24 204.917 123.378 204.32 123.378 203.616C123.378 202.901 123.24 202.304 122.962 201.824C122.696 201.333 122.338 200.971 121.89 200.736C121.453 200.501 120.973 200.384 120.45 200.384ZM129.354 200.992C129.642 200.384 130.063 199.915 130.618 199.584C131.172 199.243 131.834 199.072 132.602 199.072V200.656H132.154C131.332 200.656 130.66 200.869 130.138 201.296C129.615 201.712 129.354 202.405 129.354 203.376V208H127.898V199.216H129.354V200.992ZM138.884 199.136C139.695 199.136 140.383 199.333 140.948 199.728C141.524 200.112 141.94 200.635 142.196 201.296V199.216H143.652V212.16H142.196V205.856C141.93 206.549 141.508 207.099 140.932 207.504C140.367 207.909 139.684 208.112 138.884 208.112C138.106 208.112 137.402 207.931 136.772 207.568C136.143 207.195 135.647 206.672 135.284 206C134.932 205.317 134.756 204.528 134.756 203.632C134.756 202.736 134.932 201.952 135.284 201.28C135.647 200.597 136.143 200.069 136.772 199.696C137.402 199.323 138.106 199.136 138.884 199.136ZM139.204 200.4C138.33 200.4 137.615 200.688 137.06 201.264C136.516 201.829 136.244 202.619 136.244 203.632C136.244 204.645 136.516 205.435 137.06 206C137.604 206.555 138.319 206.832 139.204 206.832C139.759 206.832 140.26 206.704 140.708 206.448C141.167 206.181 141.53 205.808 141.796 205.328C142.063 204.837 142.196 204.267 142.196 203.616C142.196 202.965 142.063 202.4 141.796 201.92C141.53 201.429 141.167 201.056 140.708 200.8C140.26 200.533 139.759 200.4 139.204 200.4ZM154.928 199.216V208H153.472V205.936C153.248 206.651 152.848 207.2 152.272 207.584C151.706 207.957 151.045 208.144 150.288 208.144C149.274 208.144 148.453 207.819 147.824 207.168C147.194 206.507 146.88 205.563 146.88 204.336V199.216H148.336V204.192C148.336 205.067 148.56 205.744 149.008 206.224C149.456 206.693 150.064 206.928 150.832 206.928C151.632 206.928 152.272 206.672 152.752 206.16C153.232 205.637 153.472 204.88 153.472 203.888V199.216H154.928ZM166.49 203.12C166.49 203.429 166.469 203.696 166.426 203.92H159.402C159.434 204.923 159.717 205.675 160.25 206.176C160.794 206.677 161.456 206.928 162.234 206.928C162.938 206.928 163.525 206.752 163.994 206.4C164.474 206.037 164.768 205.557 164.874 204.96H166.426C166.32 205.568 166.08 206.112 165.706 206.592C165.344 207.072 164.869 207.445 164.282 207.712C163.696 207.979 163.034 208.112 162.298 208.112C161.456 208.112 160.709 207.931 160.058 207.568C159.408 207.205 158.896 206.688 158.522 206.016C158.16 205.333 157.978 204.533 157.978 203.616C157.978 202.699 158.16 201.899 158.522 201.216C158.896 200.533 159.408 200.011 160.058 199.648C160.709 199.285 161.456 199.104 162.298 199.104C163.152 199.104 163.893 199.285 164.522 199.648C165.162 200.011 165.648 200.496 165.978 201.104C166.32 201.712 166.49 202.384 166.49 203.12ZM165.018 203.216C165.05 202.565 164.944 202.021 164.698 201.584C164.453 201.147 164.117 200.821 163.69 200.608C163.264 200.395 162.8 200.288 162.298 200.288C161.498 200.288 160.826 200.539 160.282 201.04C159.738 201.531 159.445 202.256 159.402 203.216H165.018ZM180.345 199.072C181.369 199.072 182.19 199.403 182.809 200.064C183.438 200.715 183.753 201.659 183.753 202.896V208H182.297V203.024C182.297 202.16 182.083 201.499 181.657 201.04C181.241 200.581 180.665 200.352 179.929 200.352C179.161 200.352 178.542 200.608 178.073 201.12C177.614 201.621 177.385 202.363 177.385 203.344V208H175.929V203.024C175.929 202.16 175.715 201.499 175.289 201.04C174.862 200.581 174.286 200.352 173.561 200.352C172.782 200.352 172.158 200.608 171.689 201.12C171.23 201.621 171.001 202.363 171.001 203.344V208H169.545V199.216H171.001V201.216C171.214 200.523 171.593 199.995 172.137 199.632C172.691 199.259 173.326 199.072 174.041 199.072C174.787 199.072 175.433 199.264 175.977 199.648C176.531 200.021 176.926 200.576 177.161 201.312C177.406 200.597 177.817 200.048 178.393 199.664C178.969 199.269 179.619 199.072 180.345 199.072ZM195.866 199.104C196.72 199.104 197.44 199.317 198.026 199.744C198.624 200.171 199.04 200.741 199.274 201.456V196.16H200.73V208H199.274V205.76C199.04 206.475 198.624 207.045 198.026 207.472C197.44 207.899 196.72 208.112 195.866 208.112C195.088 208.112 194.394 207.931 193.786 207.568C193.178 207.205 192.698 206.688 192.346 206.016C192.005 205.333 191.834 204.533 191.834 203.616C191.834 202.699 192.005 201.899 192.346 201.216C192.698 200.533 193.178 200.011 193.786 199.648C194.394 199.285 195.088 199.104 195.866 199.104ZM196.282 200.4C195.386 200.4 194.666 200.688 194.122 201.264C193.589 201.829 193.322 202.613 193.322 203.616C193.322 204.619 193.589 205.408 194.122 205.984C194.666 206.549 195.386 206.832 196.282 206.832C196.858 206.832 197.37 206.699 197.818 206.432C198.277 206.165 198.634 205.792 198.89 205.312C199.146 204.821 199.274 204.256 199.274 203.616C199.274 202.976 199.146 202.411 198.89 201.92C198.634 201.429 198.277 201.056 197.818 200.8C197.37 200.533 196.858 200.4 196.282 200.4ZM212.278 203.12C212.278 203.429 212.256 203.696 212.214 203.92H205.19C205.222 204.923 205.504 205.675 206.038 206.176C206.582 206.677 207.243 206.928 208.022 206.928C208.726 206.928 209.312 206.752 209.782 206.4C210.262 206.037 210.555 205.557 210.662 204.96H212.214C212.107 205.568 211.867 206.112 211.494 206.592C211.131 207.072 210.656 207.445 210.07 207.712C209.483 207.979 208.822 208.112 208.086 208.112C207.243 208.112 206.496 207.931 205.846 207.568C205.195 207.205 204.683 206.688 204.31 206.016C203.947 205.333 203.766 204.533 203.766 203.616C203.766 202.699 203.947 201.899 204.31 201.216C204.683 200.533 205.195 200.011 205.846 199.648C206.496 199.285 207.243 199.104 208.086 199.104C208.939 199.104 209.68 199.285 210.31 199.648C210.95 200.011 211.435 200.496 211.766 201.104C212.107 201.712 212.278 202.384 212.278 203.12ZM210.806 203.216C210.838 202.565 210.731 202.021 210.486 201.584C210.24 201.147 209.904 200.821 209.478 200.608C209.051 200.395 208.587 200.288 208.086 200.288C207.286 200.288 206.614 200.539 206.07 201.04C205.526 201.531 205.232 202.256 205.19 203.216H210.806ZM219.524 206.72V208H218.436C217.54 208 216.868 207.787 216.42 207.36C215.983 206.933 215.764 206.219 215.764 205.216V200.48H214.452V199.216H215.764V197.024H217.236V199.216H219.508V200.48H217.236V205.248C217.236 205.813 217.337 206.203 217.54 206.416C217.753 206.619 218.116 206.72 218.628 206.72H219.524ZM223.907 200.992C224.195 200.384 224.616 199.915 225.171 199.584C225.725 199.243 226.387 199.072 227.155 199.072V200.656H226.707C225.885 200.656 225.213 200.869 224.691 201.296C224.168 201.712 223.907 202.405 223.907 203.376V208H222.451V199.216H223.907V200.992ZM233.341 199.104C234.195 199.104 234.915 199.317 235.501 199.744C236.099 200.171 236.515 200.741 236.749 201.456V199.216H238.205V208H236.749V205.76C236.515 206.475 236.099 207.045 235.501 207.472C234.915 207.899 234.195 208.112 233.341 208.112C232.563 208.112 231.869 207.931 231.261 207.568C230.653 207.205 230.173 206.688 229.821 206.016C229.48 205.333 229.309 204.533 229.309 203.616C229.309 202.699 229.48 201.899 229.821 201.216C230.173 200.533 230.653 200.011 231.261 199.648C231.869 199.285 232.563 199.104 233.341 199.104ZM233.757 200.4C232.861 200.4 232.141 200.688 231.597 201.264C231.064 201.829 230.797 202.613 230.797 203.616C230.797 204.619 231.064 205.408 231.597 205.984C232.141 206.549 232.861 206.832 233.757 206.832C234.333 206.832 234.845 206.699 235.293 206.432C235.752 206.165 236.109 205.792 236.365 205.312C236.621 204.821 236.749 204.256 236.749 203.616C236.749 202.976 236.621 202.411 236.365 201.92C236.109 201.429 235.752 201.056 235.293 200.8C234.845 200.533 234.333 200.4 233.757 200.4ZM246.729 208L244.441 204.64L242.377 208H240.761L243.641 203.472L240.745 199.216H242.409L244.633 202.48L246.665 199.216H248.281L245.417 203.632L248.393 208H246.729ZM250.645 196.64C250.645 196.373 250.735 196.16 250.917 196C251.098 195.829 251.338 195.744 251.637 195.744C251.935 195.744 252.175 195.829 252.357 196C252.538 196.16 252.629 196.373 252.629 196.64C252.629 196.907 252.538 197.125 252.357 197.296C252.175 197.456 251.935 197.536 251.637 197.536C251.338 197.536 251.098 197.456 250.917 197.296C250.735 197.125 250.645 196.907 250.645 196.64ZM252.357 199.216V208H250.901V199.216H252.357ZM260.04 206.72V208H258.952C258.056 208 257.384 207.787 256.936 207.36C256.498 206.933 256.28 206.219 256.28 205.216V200.48H254.968V199.216H256.28V197.024H257.752V199.216H260.024V200.48H257.752V205.248C257.752 205.813 257.853 206.203 258.056 206.416C258.269 206.619 258.632 206.72 259.144 206.72H260.04ZM272.694 199.072C273.718 199.072 274.544 199.403 275.174 200.064C275.803 200.715 276.118 201.659 276.118 202.896V208H274.662V203.024C274.662 202.149 274.438 201.477 273.99 201.008C273.542 200.539 272.934 200.304 272.166 200.304C271.366 200.304 270.726 200.565 270.246 201.088C269.766 201.6 269.526 202.352 269.526 203.344V208H268.07V196.16H269.526V201.296C269.75 200.581 270.144 200.032 270.71 199.648C271.286 199.264 271.947 199.072 272.694 199.072ZM283.485 199.104C284.327 199.104 285.079 199.285 285.741 199.648C286.413 200.011 286.935 200.533 287.309 201.216C287.693 201.899 287.885 202.699 287.885 203.616C287.885 204.533 287.693 205.333 287.309 206.016C286.935 206.688 286.413 207.205 285.741 207.568C285.079 207.931 284.327 208.112 283.485 208.112C282.642 208.112 281.885 207.931 281.213 207.568C280.551 207.205 280.029 206.688 279.645 206.016C279.261 205.333 279.069 204.533 279.069 203.616C279.069 202.699 279.261 201.899 279.645 201.216C280.029 200.533 280.551 200.011 281.213 199.648C281.885 199.285 282.642 199.104 283.485 199.104ZM283.485 200.384C282.962 200.384 282.477 200.501 282.029 200.736C281.591 200.971 281.234 201.333 280.957 201.824C280.69 202.304 280.557 202.901 280.557 203.616C280.557 204.32 280.69 204.917 280.957 205.408C281.234 205.888 281.591 206.245 282.029 206.48C282.477 206.715 282.962 206.832 283.485 206.832C284.007 206.832 284.487 206.715 284.925 206.48C285.373 206.245 285.73 205.888 285.997 205.408C286.274 204.917 286.413 204.32 286.413 203.616C286.413 202.901 286.274 202.304 285.997 201.824C285.73 201.333 285.373 200.971 284.925 200.736C284.487 200.501 284.007 200.384 283.485 200.384ZM293.684 199.104C294.676 199.104 295.471 199.365 296.068 199.888C296.676 200.4 297.044 201.093 297.172 201.968H295.78C295.716 201.445 295.497 201.019 295.124 200.688C294.761 200.347 294.271 200.176 293.652 200.176C293.129 200.176 292.719 200.304 292.42 200.56C292.132 200.805 291.988 201.141 291.988 201.568C291.988 201.888 292.084 202.149 292.276 202.352C292.479 202.544 292.724 202.693 293.012 202.8C293.311 202.896 293.716 203.003 294.228 203.12C294.879 203.269 295.401 203.424 295.796 203.584C296.201 203.733 296.543 203.979 296.82 204.32C297.108 204.661 297.252 205.12 297.252 205.696C297.252 206.411 296.98 206.992 296.436 207.44C295.903 207.888 295.188 208.112 294.292 208.112C293.247 208.112 292.393 207.861 291.732 207.36C291.071 206.859 290.681 206.16 290.564 205.264H291.972C292.025 205.797 292.255 206.229 292.66 206.56C293.076 206.891 293.62 207.056 294.292 207.056C294.793 207.056 295.183 206.928 295.46 206.672C295.748 206.416 295.892 206.08 295.892 205.664C295.892 205.323 295.791 205.051 295.588 204.848C295.385 204.645 295.135 204.491 294.836 204.384C294.537 204.277 294.127 204.165 293.604 204.048C292.953 203.899 292.431 203.749 292.036 203.6C291.652 203.451 291.321 203.216 291.044 202.896C290.777 202.565 290.644 202.123 290.644 201.568C290.644 200.832 290.916 200.24 291.46 199.792C292.004 199.333 292.745 199.104 293.684 199.104ZM304.54 206.72V208H303.452C302.556 208 301.884 207.787 301.436 207.36C300.998 206.933 300.78 206.219 300.78 205.216V200.48H299.468V199.216H300.78V197.024H302.252V199.216H304.524V200.48H302.252V205.248C302.252 205.813 302.353 206.203 302.556 206.416C302.769 206.619 303.132 206.72 303.644 206.72H304.54ZM307.21 196.64C307.21 196.373 307.301 196.16 307.482 196C307.664 195.829 307.904 195.744 308.202 195.744C308.501 195.744 308.741 195.829 308.922 196C309.104 196.16 309.194 196.373 309.194 196.64C309.194 196.907 309.104 197.125 308.922 197.296C308.741 197.456 308.501 197.536 308.202 197.536C307.904 197.536 307.664 197.456 307.482 197.296C307.301 197.125 307.21 196.907 307.21 196.64ZM308.922 199.216V208H307.466V199.216H308.922ZM325.596 203.12C325.596 203.429 325.575 203.696 325.532 203.92H318.508C318.54 204.923 318.823 205.675 319.356 206.176C319.9 206.677 320.562 206.928 321.34 206.928C322.044 206.928 322.631 206.752 323.1 206.4C323.58 206.037 323.874 205.557 323.98 204.96H325.532C325.426 205.568 325.186 206.112 324.812 206.592C324.45 207.072 323.975 207.445 323.388 207.712C322.802 207.979 322.14 208.112 321.404 208.112C320.562 208.112 319.815 207.931 319.164 207.568C318.514 207.205 318.002 206.688 317.628 206.016C317.266 205.333 317.084 204.533 317.084 203.616C317.084 202.699 317.266 201.899 317.628 201.216C318.002 200.533 318.514 200.011 319.164 199.648C319.815 199.285 320.562 199.104 321.404 199.104C322.258 199.104 322.999 199.285 323.628 199.648C324.268 200.011 324.754 200.496 325.084 201.104C325.426 201.712 325.596 202.384 325.596 203.12ZM324.124 203.216C324.156 202.565 324.05 202.021 323.804 201.584C323.559 201.147 323.223 200.821 322.796 200.608C322.37 200.395 321.906 200.288 321.404 200.288C320.604 200.288 319.932 200.539 319.388 201.04C318.844 201.531 318.551 202.256 318.508 203.216H324.124ZM332.843 206.72V208H331.755C330.859 208 330.187 207.787 329.739 207.36C329.301 206.933 329.083 206.219 329.083 205.216V200.48H327.771V199.216H329.083V197.024H330.555V199.216H332.827V200.48H330.555V205.248C330.555 205.813 330.656 206.203 330.859 206.416C331.072 206.619 331.435 206.72 331.947 206.72H332.843ZM344.569 199.136C345.379 199.136 346.067 199.333 346.633 199.728C347.209 200.112 347.625 200.635 347.881 201.296V199.216H349.337V212.16H347.881V205.856C347.614 206.549 347.193 207.099 346.617 207.504C346.051 207.909 345.369 208.112 344.569 208.112C343.79 208.112 343.086 207.931 342.457 207.568C341.827 207.195 341.331 206.672 340.969 206C340.617 205.317 340.441 204.528 340.441 203.632C340.441 202.736 340.617 201.952 340.969 201.28C341.331 200.597 341.827 200.069 342.457 199.696C343.086 199.323 343.79 199.136 344.569 199.136ZM344.889 200.4C344.014 200.4 343.299 200.688 342.745 201.264C342.201 201.829 341.929 202.619 341.929 203.632C341.929 204.645 342.201 205.435 342.745 206C343.289 206.555 344.003 206.832 344.889 206.832C345.443 206.832 345.945 206.704 346.393 206.448C346.851 206.181 347.214 205.808 347.481 205.328C347.747 204.837 347.881 204.267 347.881 203.616C347.881 202.965 347.747 202.4 347.481 201.92C347.214 201.429 346.851 201.056 346.393 200.8C345.945 200.533 345.443 200.4 344.889 200.4ZM360.612 199.216V208H359.156V205.936C358.932 206.651 358.532 207.2 357.956 207.584C357.391 207.957 356.729 208.144 355.972 208.144C354.959 208.144 354.137 207.819 353.508 207.168C352.879 206.507 352.564 205.563 352.564 204.336V199.216H354.02V204.192C354.02 205.067 354.244 205.744 354.692 206.224C355.14 206.693 355.748 206.928 356.516 206.928C357.316 206.928 357.956 206.672 358.436 206.16C358.916 205.637 359.156 204.88 359.156 203.888V199.216H360.612ZM363.839 196.64C363.839 196.373 363.929 196.16 364.111 196C364.292 195.829 364.532 195.744 364.831 195.744C365.129 195.744 365.369 195.829 365.551 196C365.732 196.16 365.823 196.373 365.823 196.64C365.823 196.907 365.732 197.125 365.551 197.296C365.369 197.456 365.129 197.536 364.831 197.536C364.532 197.536 364.292 197.456 364.111 197.296C363.929 197.125 363.839 196.907 363.839 196.64ZM365.551 199.216V208H364.095V199.216H365.551ZM372.641 199.104C373.495 199.104 374.215 199.317 374.801 199.744C375.399 200.171 375.815 200.741 376.049 201.456V196.16H377.505V208H376.049V205.76C375.815 206.475 375.399 207.045 374.801 207.472C374.215 207.899 373.495 208.112 372.641 208.112C371.863 208.112 371.169 207.931 370.561 207.568C369.953 207.205 369.473 206.688 369.121 206.016C368.78 205.333 368.609 204.533 368.609 203.616C368.609 202.699 368.78 201.899 369.121 201.216C369.473 200.533 369.953 200.011 370.561 199.648C371.169 199.285 371.863 199.104 372.641 199.104ZM373.057 200.4C372.161 200.4 371.441 200.688 370.897 201.264C370.364 201.829 370.097 202.613 370.097 203.616C370.097 204.619 370.364 205.408 370.897 205.984C371.441 206.549 372.161 206.832 373.057 206.832C373.633 206.832 374.145 206.699 374.593 206.432C375.052 206.165 375.409 205.792 375.665 205.312C375.921 204.821 376.049 204.256 376.049 203.616C376.049 202.976 375.921 202.411 375.665 201.92C375.409 201.429 375.052 201.056 374.593 200.8C374.145 200.533 373.633 200.4 373.057 200.4ZM389.053 203.12C389.053 203.429 389.031 203.696 388.989 203.92H381.965C381.997 204.923 382.279 205.675 382.813 206.176C383.357 206.677 384.018 206.928 384.797 206.928C385.501 206.928 386.087 206.752 386.557 206.4C387.037 206.037 387.33 205.557 387.437 204.96H388.989C388.882 205.568 388.642 206.112 388.269 206.592C387.906 207.072 387.431 207.445 386.845 207.712C386.258 207.979 385.597 208.112 384.861 208.112C384.018 208.112 383.271 207.931 382.621 207.568C381.97 207.205 381.458 206.688 381.085 206.016C380.722 205.333 380.541 204.533 380.541 203.616C380.541 202.699 380.722 201.899 381.085 201.216C381.458 200.533 381.97 200.011 382.621 199.648C383.271 199.285 384.018 199.104 384.861 199.104C385.714 199.104 386.455 199.285 387.085 199.648C387.725 200.011 388.21 200.496 388.541 201.104C388.882 201.712 389.053 202.384 389.053 203.12ZM387.581 203.216C387.613 202.565 387.506 202.021 387.261 201.584C387.015 201.147 386.679 200.821 386.253 200.608C385.826 200.395 385.362 200.288 384.861 200.288C384.061 200.288 383.389 200.539 382.845 201.04C382.301 201.531 382.007 202.256 381.965 203.216H387.581ZM402.907 199.072C403.931 199.072 404.752 199.403 405.371 200.064C406 200.715 406.315 201.659 406.315 202.896V208H404.859V203.024C404.859 202.16 404.646 201.499 404.219 201.04C403.803 200.581 403.227 200.352 402.491 200.352C401.723 200.352 401.104 200.608 400.635 201.12C400.176 201.621 399.947 202.363 399.947 203.344V208H398.491V203.024C398.491 202.16 398.278 201.499 397.851 201.04C397.424 200.581 396.848 200.352 396.123 200.352C395.344 200.352 394.72 200.608 394.251 201.12C393.792 201.621 393.563 202.363 393.563 203.344V208H392.107V199.216H393.563V201.216C393.776 200.523 394.155 199.995 394.699 199.632C395.254 199.259 395.888 199.072 396.603 199.072C397.35 199.072 397.995 199.264 398.539 199.648C399.094 200.021 399.488 200.576 399.723 201.312C399.968 200.597 400.379 200.048 400.955 199.664C401.531 199.269 402.182 199.072 402.907 199.072ZM417.581 199.104C418.573 199.104 419.368 199.365 419.965 199.888C420.573 200.4 420.941 201.093 421.069 201.968H419.677C419.613 201.445 419.394 201.019 419.021 200.688C418.658 200.347 418.168 200.176 417.549 200.176C417.026 200.176 416.616 200.304 416.317 200.56C416.029 200.805 415.885 201.141 415.885 201.568C415.885 201.888 415.981 202.149 416.173 202.352C416.376 202.544 416.621 202.693 416.909 202.8C417.208 202.896 417.613 203.003 418.125 203.12C418.776 203.269 419.298 203.424 419.693 203.584C420.098 203.733 420.44 203.979 420.717 204.32C421.005 204.661 421.149 205.12 421.149 205.696C421.149 206.411 420.877 206.992 420.333 207.44C419.8 207.888 419.085 208.112 418.189 208.112C417.144 208.112 416.29 207.861 415.629 207.36C414.968 206.859 414.578 206.16 414.461 205.264H415.869C415.922 205.797 416.152 206.229 416.557 206.56C416.973 206.891 417.517 207.056 418.189 207.056C418.69 207.056 419.08 206.928 419.357 206.672C419.645 206.416 419.789 206.08 419.789 205.664C419.789 205.323 419.688 205.051 419.485 204.848C419.282 204.645 419.032 204.491 418.733 204.384C418.434 204.277 418.024 204.165 417.501 204.048C416.85 203.899 416.328 203.749 415.933 203.6C415.549 203.451 415.218 203.216 414.941 202.896C414.674 202.565 414.541 202.123 414.541 201.568C414.541 200.832 414.813 200.24 415.357 199.792C415.901 199.333 416.642 199.104 417.581 199.104ZM432.325 203.12C432.325 203.429 432.303 203.696 432.261 203.92H425.237C425.269 204.923 425.551 205.675 426.085 206.176C426.629 206.677 427.29 206.928 428.069 206.928C428.773 206.928 429.359 206.752 429.829 206.4C430.309 206.037 430.602 205.557 430.709 204.96H432.261C432.154 205.568 431.914 206.112 431.541 206.592C431.178 207.072 430.703 207.445 430.117 207.712C429.53 207.979 428.869 208.112 428.133 208.112C427.29 208.112 426.543 207.931 425.893 207.568C425.242 207.205 424.73 206.688 424.357 206.016C423.994 205.333 423.813 204.533 423.813 203.616C423.813 202.699 423.994 201.899 424.357 201.216C424.73 200.533 425.242 200.011 425.893 199.648C426.543 199.285 427.29 199.104 428.133 199.104C428.986 199.104 429.727 199.285 430.357 199.648C430.997 200.011 431.482 200.496 431.813 201.104C432.154 201.712 432.325 202.384 432.325 203.12ZM430.853 203.216C430.885 202.565 430.778 202.021 430.533 201.584C430.287 201.147 429.951 200.821 429.525 200.608C429.098 200.395 428.634 200.288 428.133 200.288C427.333 200.288 426.661 200.539 426.117 201.04C425.573 201.531 425.279 202.256 425.237 203.216H430.853ZM201.035 233.72V235H199.947C199.051 235 198.379 234.787 197.931 234.36C197.494 233.933 197.275 233.219 197.275 232.216V227.48H195.963V226.216H197.275V224.024H198.747V226.216H201.019V227.48H198.747V232.248C198.747 232.813 198.848 233.203 199.051 233.416C199.264 233.619 199.627 233.72 200.139 233.72H201.035ZM212.042 230.12C212.042 230.429 212.02 230.696 211.978 230.92H204.954C204.986 231.923 205.268 232.675 205.802 233.176C206.346 233.677 207.007 233.928 207.786 233.928C208.49 233.928 209.076 233.752 209.546 233.4C210.026 233.037 210.319 232.557 210.426 231.96H211.978C211.871 232.568 211.631 233.112 211.258 233.592C210.895 234.072 210.42 234.445 209.834 234.712C209.247 234.979 208.586 235.112 207.85 235.112C207.007 235.112 206.26 234.931 205.61 234.568C204.959 234.205 204.447 233.688 204.074 233.016C203.711 232.333 203.53 231.533 203.53 230.616C203.53 229.699 203.711 228.899 204.074 228.216C204.447 227.533 204.959 227.011 205.61 226.648C206.26 226.285 207.007 226.104 207.85 226.104C208.703 226.104 209.444 226.285 210.074 226.648C210.714 227.011 211.199 227.496 211.53 228.104C211.871 228.712 212.042 229.384 212.042 230.12ZM210.57 230.216C210.602 229.565 210.495 229.021 210.25 228.584C210.004 228.147 209.668 227.821 209.242 227.608C208.815 227.395 208.351 227.288 207.85 227.288C207.05 227.288 206.378 227.539 205.834 228.04C205.29 228.531 204.996 229.256 204.954 230.216H210.57ZM220.152 235L217.864 231.64L215.8 235H214.184L217.064 230.472L214.168 226.216H215.832L218.056 229.48L220.088 226.216H221.704L218.84 230.632L221.816 235H220.152ZM224.068 223.64C224.068 223.373 224.159 223.16 224.34 223C224.522 222.829 224.762 222.744 225.06 222.744C225.359 222.744 225.599 222.829 225.78 223C225.962 223.16 226.052 223.373 226.052 223.64C226.052 223.907 225.962 224.125 225.78 224.296C225.599 224.456 225.359 224.536 225.06 224.536C224.762 224.536 224.522 224.456 224.34 224.296C224.159 224.125 224.068 223.907 224.068 223.64ZM225.78 226.216V235H224.324V226.216H225.78ZM233.463 233.72V235H232.375C231.479 235 230.807 234.787 230.359 234.36C229.922 233.933 229.703 233.219 229.703 232.216V227.48H228.391V226.216H229.703V224.024H231.175V226.216H233.447V227.48H231.175V232.248C231.175 232.813 231.276 233.203 231.479 233.416C231.692 233.619 232.055 233.72 232.567 233.72H233.463ZM237.238 233.928C237.387 234.397 237.462 234.835 237.462 235.24C237.462 235.795 237.323 236.237 237.046 236.568C236.769 236.909 236.353 237.08 235.798 237.08V236.456C236.065 236.456 236.257 236.381 236.374 236.232C236.502 236.093 236.566 235.869 236.566 235.56V235.416H235.75V233.928H237.238ZM250.064 226.072C251.088 226.072 251.915 226.403 252.544 227.064C253.173 227.715 253.488 228.659 253.488 229.896V235H252.032V230.024C252.032 229.149 251.808 228.477 251.36 228.008C250.912 227.539 250.304 227.304 249.536 227.304C248.736 227.304 248.096 227.565 247.616 228.088C247.136 228.6 246.896 229.352 246.896 230.344V235H245.44V226.216H246.896V228.296C247.12 227.581 247.515 227.032 248.08 226.648C248.656 226.264 249.317 226.072 250.064 226.072ZM264.951 230.12C264.951 230.429 264.93 230.696 264.887 230.92H257.863C257.895 231.923 258.178 232.675 258.711 233.176C259.255 233.677 259.916 233.928 260.695 233.928C261.399 233.928 261.986 233.752 262.455 233.4C262.935 233.037 263.228 232.557 263.335 231.96H264.887C264.78 232.568 264.54 233.112 264.167 233.592C263.804 234.072 263.33 234.445 262.743 234.712C262.156 234.979 261.495 235.112 260.759 235.112C259.916 235.112 259.17 234.931 258.519 234.568C257.868 234.205 257.356 233.688 256.983 233.016C256.62 232.333 256.439 231.533 256.439 230.616C256.439 229.699 256.62 228.899 256.983 228.216C257.356 227.533 257.868 227.011 258.519 226.648C259.17 226.285 259.916 226.104 260.759 226.104C261.612 226.104 262.354 226.285 262.983 226.648C263.623 227.011 264.108 227.496 264.439 228.104C264.78 228.712 264.951 229.384 264.951 230.12ZM263.479 230.216C263.511 229.565 263.404 229.021 263.159 228.584C262.914 228.147 262.578 227.821 262.151 227.608C261.724 227.395 261.26 227.288 260.759 227.288C259.959 227.288 259.287 227.539 258.743 228.04C258.199 228.531 257.906 229.256 257.863 230.216H263.479ZM276.709 226.104C277.562 226.104 278.282 226.317 278.869 226.744C279.466 227.171 279.882 227.741 280.117 228.456V226.216H281.573V235H280.117V232.76C279.882 233.475 279.466 234.045 278.869 234.472C278.282 234.899 277.562 235.112 276.709 235.112C275.93 235.112 275.237 234.931 274.629 234.568C274.021 234.205 273.541 233.688 273.189 233.016C272.847 232.333 272.677 231.533 272.677 230.616C272.677 229.699 272.847 228.899 273.189 228.216C273.541 227.533 274.021 227.011 274.629 226.648C275.237 226.285 275.93 226.104 276.709 226.104ZM277.125 227.4C276.229 227.4 275.509 227.688 274.965 228.264C274.431 228.829 274.165 229.613 274.165 230.616C274.165 231.619 274.431 232.408 274.965 232.984C275.509 233.549 276.229 233.832 277.125 233.832C277.701 233.832 278.213 233.699 278.661 233.432C279.119 233.165 279.477 232.792 279.733 232.312C279.989 231.821 280.117 231.256 280.117 230.616C280.117 229.976 279.989 229.411 279.733 228.92C279.477 228.429 279.119 228.056 278.661 227.8C278.213 227.533 277.701 227.4 277.125 227.4ZM288.64 226.104C289.493 226.104 290.213 226.317 290.8 226.744C291.397 227.171 291.813 227.741 292.048 228.456V223.16H293.504V235H292.048V232.76C291.813 233.475 291.397 234.045 290.8 234.472C290.213 234.899 289.493 235.112 288.64 235.112C287.861 235.112 287.168 234.931 286.56 234.568C285.952 234.205 285.472 233.688 285.12 233.016C284.779 232.333 284.608 231.533 284.608 230.616C284.608 229.699 284.779 228.899 285.12 228.216C285.472 227.533 285.952 227.011 286.56 226.648C287.168 226.285 287.861 226.104 288.64 226.104ZM289.056 227.4C288.16 227.4 287.44 227.688 286.896 228.264C286.363 228.829 286.096 229.613 286.096 230.616C286.096 231.619 286.363 232.408 286.896 232.984C287.44 233.549 288.16 233.832 289.056 233.832C289.632 233.832 290.144 233.699 290.592 233.432C291.051 233.165 291.408 232.792 291.664 232.312C291.92 231.821 292.048 231.256 292.048 230.616C292.048 229.976 291.92 229.411 291.664 228.92C291.408 228.429 291.051 228.056 290.592 227.8C290.144 227.533 289.632 227.4 289.056 227.4ZM310.154 230.12C310.154 230.429 310.133 230.696 310.09 230.92H303.066C303.098 231.923 303.381 232.675 303.914 233.176C304.458 233.677 305.12 233.928 305.898 233.928C306.602 233.928 307.189 233.752 307.658 233.4C308.138 233.037 308.432 232.557 308.538 231.96H310.09C309.984 232.568 309.744 233.112 309.37 233.592C309.008 234.072 308.533 234.445 307.946 234.712C307.36 234.979 306.698 235.112 305.962 235.112C305.12 235.112 304.373 234.931 303.722 234.568C303.072 234.205 302.56 233.688 302.186 233.016C301.824 232.333 301.642 231.533 301.642 230.616C301.642 229.699 301.824 228.899 302.186 228.216C302.56 227.533 303.072 227.011 303.722 226.648C304.373 226.285 305.12 226.104 305.962 226.104C306.816 226.104 307.557 226.285 308.186 226.648C308.826 227.011 309.312 227.496 309.642 228.104C309.984 228.712 310.154 229.384 310.154 230.12ZM308.682 230.216C308.714 229.565 308.608 229.021 308.362 228.584C308.117 228.147 307.781 227.821 307.354 227.608C306.928 227.395 306.464 227.288 305.962 227.288C305.162 227.288 304.49 227.539 303.946 228.04C303.402 228.531 303.109 229.256 303.066 230.216H308.682ZM316.809 226.104C317.662 226.104 318.382 226.317 318.969 226.744C319.566 227.171 319.982 227.741 320.217 228.456V226.216H321.673V235H320.217V232.76C319.982 233.475 319.566 234.045 318.969 234.472C318.382 234.899 317.662 235.112 316.809 235.112C316.03 235.112 315.337 234.931 314.729 234.568C314.121 234.205 313.641 233.688 313.289 233.016C312.947 232.333 312.777 231.533 312.777 230.616C312.777 229.699 312.947 228.899 313.289 228.216C313.641 227.533 314.121 227.011 314.729 226.648C315.337 226.285 316.03 226.104 316.809 226.104ZM317.225 227.4C316.329 227.4 315.609 227.688 315.065 228.264C314.531 228.829 314.265 229.613 314.265 230.616C314.265 231.619 314.531 232.408 315.065 232.984C315.609 233.549 316.329 233.832 317.225 233.832C317.801 233.832 318.313 233.699 318.761 233.432C319.219 233.165 319.577 232.792 319.833 232.312C320.089 231.821 320.217 231.256 320.217 230.616C320.217 229.976 320.089 229.411 319.833 228.92C319.577 228.429 319.219 228.056 318.761 227.8C318.313 227.533 317.801 227.4 317.225 227.4ZM335.94 226.072C336.964 226.072 337.785 226.403 338.404 227.064C339.033 227.715 339.348 228.659 339.348 229.896V235H337.892V230.024C337.892 229.16 337.679 228.499 337.252 228.04C336.836 227.581 336.26 227.352 335.524 227.352C334.756 227.352 334.137 227.608 333.668 228.12C333.209 228.621 332.98 229.363 332.98 230.344V235H331.524V230.024C331.524 229.16 331.311 228.499 330.884 228.04C330.457 227.581 329.881 227.352 329.156 227.352C328.377 227.352 327.753 227.608 327.284 228.12C326.825 228.621 326.596 229.363 326.596 230.344V235H325.14V226.216H326.596V228.216C326.809 227.523 327.188 226.995 327.732 226.632C328.287 226.259 328.921 226.072 329.636 226.072C330.383 226.072 331.028 226.264 331.572 226.648C332.127 227.021 332.521 227.576 332.756 228.312C333.001 227.597 333.412 227.048 333.988 226.664C334.564 226.269 335.215 226.072 335.94 226.072ZM343.831 233.288V235H342.071V233.288H343.831Z" fill="white"/>
<path d="M213.286 155.712C215.078 156.132 216.492 157 217.528 158.316C218.592 159.632 219.124 161.158 219.124 162.894C219.124 165.442 218.27 167.43 216.562 168.858C214.882 170.286 212.46 171 209.296 171H195.478V141.306H208.96C211.984 141.306 214.322 141.964 215.974 143.28C217.626 144.596 218.452 146.472 218.452 148.908C218.452 150.7 217.976 152.198 217.024 153.402C216.072 154.578 214.826 155.348 213.286 155.712ZM202.66 153.444H207.364C209.856 153.444 211.102 152.38 211.102 150.252C211.102 148.124 209.828 147.06 207.28 147.06H202.66V153.444ZM207.784 165.162C210.444 165.162 211.774 164.07 211.774 161.886C211.774 160.822 211.424 159.996 210.724 159.408C210.024 158.792 209.03 158.484 207.742 158.484H202.66V165.162H207.784ZM247.027 147.564V171H239.803V166.758C239.131 168.13 238.123 169.222 236.779 170.034C235.463 170.846 233.923 171.252 232.159 171.252C229.471 171.252 227.329 170.356 225.733 168.564C224.165 166.772 223.381 164.308 223.381 161.172V147.564H230.521V160.29C230.521 161.886 230.927 163.132 231.739 164.028C232.579 164.896 233.699 165.33 235.099 165.33C236.555 165.33 237.703 164.868 238.543 163.944C239.383 163.02 239.803 161.704 239.803 159.996V147.564H247.027ZM258.195 147.564L263.823 161.928L269.073 147.564H277.011L262.395 182.172H254.499L260.001 170.118L250.173 147.564H258.195ZM302.456 158.652C302.456 159.24 302.386 159.884 302.246 160.584H285.992C286.076 162.348 286.524 163.622 287.336 164.406C288.148 165.162 289.184 165.54 290.444 165.54C291.508 165.54 292.39 165.274 293.09 164.742C293.79 164.21 294.252 163.524 294.476 162.684H302.078C301.77 164.336 301.098 165.82 300.062 167.136C299.026 168.424 297.71 169.446 296.114 170.202C294.518 170.93 292.74 171.294 290.78 171.294C288.484 171.294 286.44 170.818 284.648 169.866C282.884 168.886 281.498 167.486 280.49 165.666C279.482 163.846 278.978 161.718 278.978 159.282C278.978 156.818 279.468 154.69 280.448 152.898C281.456 151.078 282.856 149.692 284.648 148.74C286.44 147.76 288.484 147.27 290.78 147.27C293.104 147.27 295.148 147.746 296.912 148.698C298.676 149.65 300.034 150.994 300.986 152.73C301.966 154.438 302.456 156.412 302.456 158.652ZM295.19 157.56C295.218 156.02 294.798 154.872 293.93 154.116C293.09 153.332 292.04 152.94 290.78 152.94C289.464 152.94 288.372 153.332 287.504 154.116C286.636 154.9 286.146 156.048 286.034 157.56H295.19ZM314.182 151.974C315.078 150.546 316.226 149.412 317.626 148.572C319.054 147.732 320.594 147.312 322.246 147.312V154.998H320.188C318.284 154.998 316.8 155.404 315.736 156.216C314.7 157.028 314.182 158.4 314.182 160.332V171H307V147.564H314.182V151.974ZM334.578 147.27C337.546 147.27 339.912 148.012 341.676 149.496C343.468 150.98 344.588 152.94 345.036 155.376H338.316C338.12 154.424 337.672 153.682 336.972 153.15C336.3 152.59 335.446 152.31 334.41 152.31C333.598 152.31 332.982 152.492 332.562 152.856C332.142 153.192 331.932 153.682 331.932 154.326C331.932 155.054 332.31 155.6 333.066 155.964C333.85 156.328 335.068 156.692 336.72 157.056C338.512 157.476 339.982 157.91 341.13 158.358C342.278 158.778 343.272 159.478 344.112 160.458C344.952 161.438 345.372 162.754 345.372 164.406C345.372 165.75 345.008 166.94 344.28 167.976C343.552 169.012 342.502 169.824 341.13 170.412C339.758 171 338.134 171.294 336.258 171.294C333.094 171.294 330.56 170.594 328.656 169.194C326.752 167.794 325.59 165.792 325.17 163.188H332.1C332.212 164.196 332.632 164.966 333.36 165.498C334.116 166.03 335.082 166.296 336.258 166.296C337.07 166.296 337.686 166.114 338.106 165.75C338.526 165.358 338.736 164.854 338.736 164.238C338.736 163.426 338.344 162.852 337.56 162.516C336.804 162.152 335.558 161.774 333.822 161.382C332.086 161.018 330.658 160.626 329.538 160.206C328.418 159.786 327.452 159.114 326.64 158.19C325.828 157.238 325.422 155.95 325.422 154.326C325.422 152.226 326.22 150.532 327.816 149.244C329.412 147.928 331.666 147.27 334.578 147.27Z" fill="white"/>
<path fill-rule="evenodd" clip-rule="evenodd" d="M262.345 64.5521L259.306 67.3064C261.459 69.9887 264.374 72.2086 267.949 72.9195V77.0803H272.051V73.2027C275.956 72.9357 279.918 69.9901 280.582 66.0753C281.509 60.7602 276.848 57.5786 272.051 56.104V48.0485C274.123 48.2631 276.457 49.9236 278.143 51.3682L280.687 48.1512C278.329 45.9622 274.496 43.9766 272.051 43.9126V40.0074H267.949V44.1433C264.726 44.8337 262.075 47.3947 261.644 50.5361C261.252 55.0449 263.359 57.2828 267.949 58.8773V68.6895C264.354 67.722 262.345 64.5521 262.345 64.5521ZM265.701 51.1398C265.88 49.9399 266.706 48.9601 267.949 48.439V54.4279C265.651 53.6765 265.533 52.2695 265.701 51.1398ZM272.051 69.0772C274.611 68.7075 276.544 67.0118 276.544 65.3542C276.544 62.0086 272.538 60.6588 272.088 60.5072C272.069 60.501 272.057 60.4968 272.051 60.4945V69.0772Z" fill="white"/>
<path fill-rule="evenodd" clip-rule="evenodd" d="M297.939 96.477V88.9702L298.847 89.5146L300.957 85.9975L286.475 77.3081L271.992 85.9977L274.102 89.5147L275.01 88.9703V96.4771H264.99V88.9703L265.898 89.5147L268.008 85.9977L253.525 77.3081L239.043 85.9977L241.153 89.5147L242.061 88.9703V96.4771H235V100.579H305V96.4771H297.939V96.477ZM255.576 96.477V91.4672H251.475V96.477H246.162V86.5093L253.525 82.0912L260.889 86.5093V96.477H255.576ZM288.525 91.4672V96.477H293.838V86.5093L286.475 82.0912L279.111 86.5093V96.477H284.424V91.4672H288.525Z" fill="white"/>
<path d="M235 105.891H305V109.993H235V105.891Z" fill="white"/>
</g>
<defs>
<filter id="filter0_d_2_166" x="-30" y="0" width="600" height="435" filterUnits="userSpaceOnUse" color-interpolation-filters="sRGB">
<feFlood flood-opacity="0" result="BackgroundImageFix"/>
<feColorMatrix in="SourceAlpha" type="matrix" values="0 0 0 0 0 0 0 0 0 0 0 0 0 0 0 0 0 0 127 0" result="hardAlpha"/>
<feMorphology radius="22" operator="erode" in="SourceAlpha" result="effect1_dropShadow_2_166"/>
<feOffset dy="40"/>
<feGaussianBlur stdDeviation="26"/>
<feColorMatrix type="matrix" values="0 0 0 0 0 0 0 0 0 0 0 0 0 0 0 0 0 0 0.08 0"/>
<feBlend mode="normal" in2="BackgroundImageFix" result="effect1_dropShadow_2_166"/>
<feBlend mode="normal" in="SourceGraphic" in2="effect1_dropShadow_2_166" result="shape"/>
</filter>
<clipPath id="clip0_2_166">
<rect width="540" height="365" fill="white"/>
</clipPath>
<clipPath id="clip1_2_166">
<rect width="172" height="58" fill="white" transform="translate(184 268)"/>
</clipPath>
</defs>
</svg>
